<?xml version="1.0" encoding="utf-8"?>
<!DOCTYPE svg PUBLIC "-//W3C//DTD SVG 1.1//EN" "http://www.w3.org/Graphics/SVG/1.1/DTD/svg11.dtd">
<svg version="1.1" id="Layer_1" xmlns="http://www.w3.org/2000/svg" xmlns:xlink="http://www.w3.org/1999/xlink" x="0px" y="0px"
	 width="280px" height="380px" viewBox="0 0 280 380" enable-background="new 0 0 280 380" xml:space="preserve">
<g>
	<defs>
		<rect id="SVGID_1_" width="280" height="380"/>
	</defs>
	<clipPath id="SVGID_2_">
		<use xlink:href="#SVGID_1_"  overflow="visible"/>
	</clipPath>
	<path clip-path="url(#SVGID_2_)" fill="#aca7a7" d="M72.75,334.05c-4.167,1.667-7.483,3.534-9.95,5.601
		c-2.9,2.533-4.217,5.133-3.95,7.8c0.4,3.366,3.417,6.716,9.05,10.05c4.733,2.7,10.467,5.066,17.2,7.1c3.267,1,6.933,1.934,11,2.801
		c2.567,0.566,5.283,1.1,8.15,1.6c16.667,3,33.75,4.767,51.25,5.3c17.334,0.5,34.533-0.283,51.6-2.35c8.101-0.9,15.101-2.05,21-3.45
		c1.533-0.334,3.033-0.7,4.5-1.1c5.533-1.467,10.45-3.2,14.75-5.2c7.033-3.3,10.75-6.884,11.15-10.75
		c0.334-2.667-0.934-5.284-3.8-7.851c-2.333-2.166-5.567-4.166-9.7-6c-6.066-2.732-13.033-5.066-20.9-7
		c-6.533-1.6-14.066-2.982-22.6-4.149c-28.1-3.866-56.184-4.483-84.25-1.851c-8.6,0.834-16.267,1.934-23,3.301
		C86.183,329.5,79.017,331.55,72.75,334.05"/>
	<path clip-path="url(#SVGID_2_)" fill="#34253c" d="M185.8,326.6c0.5,8.7,1.483,14.084,2.95,16.15
		c6.767,6.1,12.35,11.416,16.75,15.95c9.7,1.7,15.75,0.3,18.15-4.2c1.066-2.066,1.383-4.783,0.949-8.15
		c-4.8-3.232-12.783-10.449-23.949-21.649C197.916,326.9,192.967,327.533,185.8,326.6 M152.65,320.55
		c-4.033,3.2-10.684,4.366-19.95,3.5c-3.867,8.7-10,15.45-18.401,20.25c-0.366,0.733-0.399,1.483-0.099,2.25
		c0.533,1.3,2.117,2.601,4.75,3.9c2.099,0.866,5.966,0.533,11.599-1c3.834-1.101,9.334-3.934,16.5-8.5
		c6.267-0.767,10.333-2.333,12.2-4.7c0.767-0.967,1.15-2.066,1.15-3.3L152.65,320.55z"/>
	<path clip-path="url(#SVGID_2_)" fill="#727c90" d="M136.25,219.15L146.8,240.8c20.2,46.899,31.417,75.184,33.65,84.851
		c1.899,0.4,3.683,0.717,5.35,0.949c7.167,0.934,12.116,0.301,14.851-1.899c2.266-1.833,3.033-4.733,2.3-8.7
		c-9.333-18.334-18.667-54.133-28-107.4c-2.8,0.066-5.934-1.166-9.4-3.699c-5.267-8.867-5.066-15.467,0.601-19.8
		c-17.7,4.3-38.333,5.133-61.9,2.5c1.033,21.8,5.8,45.183,14.3,70.149c9.3,32.199,12.917,54.166,10.85,65.9
		c1.133,0.166,2.233,0.299,3.3,0.399c9.267,0.866,15.917-0.3,19.95-3.5c0.633-0.533,1.199-1.101,1.699-1.7
		c-2.732-8.699-5.25-34.717-7.55-78.05L136.25,219.15z"/>
	<path clip-path="url(#SVGID_2_)" fill="#e5ab41" d="M93.35,120.75c0.033,0.133,0.083,0.267,0.15,0.4l0.05,0.05
		C93.483,121.033,93.416,120.883,93.35,120.75"/>
	<path clip-path="url(#SVGID_2_)" fill="#f4c8a8" d="M34.7,55.6c-3.567-1.467-4.8-0.417-3.7,3.15c4.533,4.433,7.367,7.967,8.5,10.6
		c-0.267,0.233-0.517,0.5-0.75,0.8c-3.767-3.2-8.167-4.867-13.2-5c-2.034,1.233-2.05,2.883-0.05,4.95
		c6.9,2.1,10.483,3.617,10.75,4.55c-0.167,0.4-0.3,0.8-0.4,1.2C30.65,75.217,27,75.4,24.9,76.4c-2.333,1.033-2.65,2.45-0.95,4.25
		c4.066-0.4,8.15-0.4,12.25,0c2.767,6.933,6.117,10.533,10.05,10.8c1.367,1.233,6.75,13.483,16.15,36.75
		c3.467,8.6,5.717,13.5,6.75,14.7c2.333,3.233,5.167,4.55,8.5,3.95l21.45-11.3c-1.8-4.65-3.6-9.3-5.4-13.95
		c-0.034-0.133-0.083-0.25-0.15-0.35v-0.05l-0.05-0.05l-13,10.05c0.533-1.567-1.917-6.517-7.35-14.85
		C64.883,103.65,59.2,93.933,56.1,87.2c1.8-2.233,2.933-5.117,3.4-8.65c1.933-3.2,4.75-5.233,8.45-6.1c1-0.9,1-1.85,0-2.85
		c-3-2-6.25-1.683-9.75,0.95c-1.5,0.2-3.317-1.317-5.45-4.55c-3.3-6.633-5.8-12.25-7.5-16.85c-3.2-1.067-4.4,0.467-3.6,4.6L46,66.2
		c-0.6,0.1-1.183,0.233-1.75,0.4C43.25,63.667,40.067,60,34.7,55.6 M138.5,89.75c0.8,4.1,1.833,6.867,3.1,8.3
		c5.134-2,9.867-5.65,14.2-10.95c-1.6-5.4-2.033-9.033-1.3-10.9c-4.133,4.4-8.883,7.083-14.25,8.05
		c-0.867,0.133-1.717,0.233-2.55,0.3C137.933,86.483,138.2,88.217,138.5,89.75 M199.7,132.05c-3.601,3.8-7.55,7.283-11.851,10.45
		l7.101,9.25c-1.333,2.267-2.65,4.417-3.95,6.45c-5.267,8.233-10.217,14.417-14.85,18.55l-1.45,2c-1.601,1.367-3.534,2.933-5.8,4.7
		c-1.033,0.5-1.95,1.05-2.75,1.65c-5.667,4.333-5.867,10.933-0.601,19.8c3.467,2.533,6.601,3.766,9.4,3.699
		c1.933-0.033,3.7-0.684,5.3-1.949c0.066-0.533,0.066-0.984,0-1.351c2.733-1.267,3.834-2.433,3.3-3.5
		c3.4-2.634,3.983-4.649,1.75-6.05c2.134-1.166,2.467-2.7,1-4.6c-6.2,4.066-9.417,4.066-9.649,0l2.25-9.15
		c19.967-11.867,30.717-20.3,32.25-25.3C209.617,151.1,205.8,142.883,199.7,132.05 M174.95,32.6c-3.167-0.3-6.45,1.083-9.851,4.15
		c-0.1-1.033-0.232-2.033-0.399-3c-0.333-2.067-0.75-3.967-1.25-5.7c-0.467-1.633-1-3.117-1.601-4.45
		c-0.5-1.033-1.033-1.983-1.6-2.85l-2.2,1.45l2.2-1.45c-0.166-0.233-0.334-0.467-0.5-0.7c-0.233-0.3-0.467-0.6-0.7-0.9
		c-0.634-0.733-1.283-1.417-1.95-2.05c-0.666-0.633-1.366-1.2-2.1-1.7c-1.066-0.733-2.184-1.367-3.35-1.9
		c-1.234-0.567-2.533-1.017-3.9-1.35c-1.1-0.267-2.25-0.467-3.45-0.6c-0.6-0.1-1.2-0.15-1.8-0.15l-1.15,3.45l1.15-3.45
		c-0.6-0.067-1.217-0.1-1.85-0.1h-0.4c-1.367,0-2.683,0.067-3.95,0.2c-0.634,0.067-1.25,0.15-1.85,0.25l0.45,2.8l-0.45-2.8
		c-0.833,0.133-1.633,0.3-2.4,0.5c-1.333,0.333-2.583,0.767-3.75,1.3c-0.4,0.167-0.784,0.333-1.15,0.5l1.8,2.45l-1.8-2.45
		c-0.967,0.5-1.867,1.067-2.7,1.7c-0.667,0.5-1.3,1.05-1.9,1.65l1.4,1l-1.4-1c-0.534,0.533-1.034,1.1-1.5,1.7
		c-0.067,0.067-0.117,0.15-0.15,0.25c-1.033,1.3-1.884,2.817-2.55,4.55c-0.533,1.3-0.983,2.733-1.35,4.3
		c-0.467,2.067-0.783,4.35-0.95,6.85c-7.8-4.467-11.25-0.967-10.35,10.5c1.5,10.567,5.85,16.217,13.05,16.95
		c1.133,4.633,2.6,8.767,4.4,12.4c3.3,6.7,8.15,9.917,14.55,9.65c0.833-0.067,1.683-0.167,2.55-0.3
		c5.367-0.967,10.117-3.65,14.25-8.05c1.767-1.867,3.416-4.033,4.95-6.5c1.966-3.267,3.384-5.617,4.25-7.05
		c0.6,0.067,1.616,0.117,3.05,0.15c1.7,0.033,4.033-1.05,7-3.25c2.934-2.2,5.6-5.4,8-9.6c2.4-4.2,2.65-8.067,0.75-11.6
		C180.6,34.817,178.084,32.9,174.95,32.6 M167.6,43.9c1.066-2.767,3.566-5.117,7.5-7.05C171.166,38.783,168.666,41.133,167.6,43.9
		c3.867-0.267,5.867,0.583,6,2.55c-0.3,3.967-2.149,6.15-5.55,6.55c3.4-0.4,5.25-2.583,5.55-6.55
		C173.467,44.483,171.467,43.633,167.6,43.9c-0.5,1.267-0.684,2.617-0.55,4.05C166.916,46.517,167.1,45.167,167.6,43.9 M146.4,15.95
		l1.55-1.4L146.4,15.95 M151,17.6l1.5-1.5L151,17.6 M128.85,35.55c0.5,0,0.916,0.433,1.25,1.3c0.367,0.9,0.55,1.967,0.55,3.2
		c0,1.233-0.183,2.283-0.55,3.15c-0.334,0.9-0.75,1.35-1.25,1.35s-0.934-0.45-1.3-1.35c-0.333-0.867-0.5-1.917-0.5-3.15
		c0-1.233,0.167-2.3,0.5-3.2C127.916,35.983,128.35,35.55,128.85,35.55 M132.55,32.65c-2.933-2.8-4.65-4.1-5.15-3.9
		c-1.767,0.333-3.767,1.8-6,4.4c1.1-4.467,3.133-6.833,6.1-7.1C130.166,26.95,131.85,29.15,132.55,32.65 M144.2,43.65
		c-0.467-0.467-0.7-1-0.7-1.6c0-0.567,0.233-1.067,0.7-1.5c0.5-0.433,1.116-0.65,1.85-0.65c0.667,0,1.25,0.217,1.75,0.65
		c0.5,0.433,0.75,0.933,0.75,1.5c0,0.6-0.25,1.133-0.75,1.6c-0.5,0.433-1.083,0.65-1.75,0.65C145.316,44.3,144.7,44.083,144.2,43.65
		 M139.05,32.7c9.233,0.2,14.917,0.667,17.049,1.4C146.033,35.867,140.351,35.4,139.05,32.7 M116.7,44
		c-1.4-3.467-3.35-4.867-5.85-4.2C113.35,39.133,115.3,40.533,116.7,44 M144.7,55.6c1.533,0.267,2.833,0.683,3.899,1.25
		c0.467,0.267,0.9,0.55,1.301,0.85c0.899,0.733,1.55,1.633,1.949,2.7c-0.399-1.067-1.05-1.967-1.949-2.7
		c-3.801,7.967-8.734,13.1-14.8,15.4c-0.867,0.3-1.75,0.55-2.65,0.75c0.9-0.2,1.783-0.45,2.65-0.75
		c-0.133-2.233-1.817-5.15-5.05-8.75c-0.9,0.067-1.833,0.117-2.8,0.15c0.967-0.033,1.9-0.083,2.8-0.15
		c8.333-0.767,14.516-3.267,18.549-7.5C147.533,56.283,146.233,55.867,144.7,55.6 M130.65,52c0.233,3.133,2.366,4.733,6.4,4.8
		C133.016,56.733,130.883,55.133,130.65,52c2.433-1.633,4.033-4.1,4.8-7.4C134.683,47.9,133.083,50.367,130.65,52 M116.7,50.25
		c-1.767-0.3-2.6-1.533-2.5-3.7C114.1,48.717,114.933,49.95,116.7,50.25"/>
	<path clip-path="url(#SVGID_2_)" fill="#e5ab41" d="M184.75,96.75c-3.334-3.7-8.783-5.8-16.35-6.3c-4.033-0.567-7.9-2.1-11.601-4.6
		c-0.333,0.433-0.667,0.85-1,1.25c-4.333,5.3-9.066,8.95-14.2,10.95c-2.2,0.833-4.467,1.367-6.8,1.6c2.333-0.233,4.6-0.767,6.8-1.6
		c-1.267-1.433-2.3-4.2-3.1-8.3c-7.033-0.933-11.317-1.283-12.85-1.05c-1.533,0.5-3.7,1.767-6.5,3.8
		c-7.633,8.933-16.75,17.317-27.35,25.15c0.1,0.2,0.2,0.4,0.3,0.6c0.417,0.833,0.833,1.667,1.25,2.5
		c0.067,0.133,0.133,0.283,0.2,0.45v0.05c0.067,0.1,0.117,0.217,0.15,0.35c1.8,4.65,3.6,9.3,5.4,13.95
		c0.6,1.767,1.217,3.617,1.85,5.55l7.9-5.25c2-9.433,3.333-17,4-22.7c-0.667,5.7-2,13.267-4,22.7
		c-2.767,12.867-6.767,29.233-12,49.1c1.1,1.7,3.567,2.583,7.4,2.65c23.567,2.633,44.2,1.8,61.9-2.5c0.8-0.6,1.717-1.15,2.75-1.65
		c2.266-1.767,4.199-3.333,5.8-4.7l1.45-2c-0.4-1.167-0.734-3.117-1-5.85c-0.834-7.867-1.184-22.317-1.051-43.35
		c-2-2.7-4.05-5.233-6.149-7.6c2.1,2.367,4.149,4.9,6.149,7.6l10.801,17c1-0.7,1.982-1.383,2.949-2.05
		c4.301-3.167,8.25-6.65,11.851-10.45c0.667-0.7,1.45-1.583,2.35-2.65C194.75,112.067,188.983,101.183,184.75,96.75"/>
	<path clip-path="url(#SVGID_2_)" fill="#f4c8a8" d="M149.9,57.7c-0.4-0.3-0.834-0.583-1.301-0.85
		c-4.033,4.233-10.216,6.733-18.55,7.5c3.234,3.6,4.917,6.517,5.051,8.75C141.166,70.8,146.1,65.666,149.9,57.7"/>
	<path clip-path="url(#SVGID_2_)" fill="#34253c" d="M156.1,34.1c-2.133-0.733-7.816-1.2-17.05-1.4
		C140.35,35.4,146.033,35.867,156.1,34.1 M127.4,28.75c0.5-0.2,2.217,1.1,5.15,3.9c-0.7-3.5-2.383-5.7-5.05-6.6
		c-2.967,0.267-5,2.633-6.1,7.1C123.633,30.55,125.633,29.083,127.4,28.75"/>
	<path clip-path="url(#SVGID_2_)" fill="#34253c" stroke="#34253c" stroke-linecap="round" stroke-linejoin="round" d="M143.5,42.05c0,0.6,0.233,1.133,0.7,1.6c0.5,0.433,1.116,0.65,1.85,0.65
		c0.667,0,1.25-0.217,1.75-0.65c0.5-0.467,0.75-1,0.75-1.6c0-0.567-0.25-1.067-0.75-1.5c-0.5-0.433-1.083-0.65-1.75-0.65
		c-0.733,0-1.35,0.217-1.85,0.65C143.733,40.983,143.5,41.483,143.5,42.05 M130.1,36.85c-0.333-0.867-0.75-1.3-1.25-1.3
		s-0.934,0.433-1.3,1.3c-0.333,0.9-0.5,1.967-0.5,3.2c0,1.233,0.167,2.283,0.5,3.15c0.366,0.9,0.8,1.35,1.3,1.35
		s0.917-0.45,1.25-1.35c0.367-0.867,0.55-1.917,0.55-3.15C130.65,38.817,130.467,37.75,130.1,36.85"/>
	<path clip-path="url(#SVGID_2_)" fill="none" stroke="#34253c" stroke-linecap="round" stroke-linejoin="round" d="M167.05,47.95
		c-0.134-1.433,0.05-2.784,0.55-4.05c1.066-2.767,3.566-5.117,7.5-7.05 M168.05,53c3.4-0.4,5.25-2.584,5.55-6.55
		c-0.133-1.967-2.133-2.817-6-2.55 M202.05,129.4c-0.899,1.067-1.683,1.95-2.35,2.65 M200.65,324.7c2.266-1.833,3.033-4.733,2.3-8.7
		 M223.65,354.5c-2.4,4.5-8.45,5.9-18.15,4.2c-4.4-4.534-9.983-9.851-16.75-15.95 M180.45,325.65c1.899,0.4,3.683,0.717,5.35,0.949
		 M152.65,320.55c0.633-0.532,1.199-1.101,1.699-1.7 M160.4,332.95c0,1.232-0.384,2.333-1.15,3.3c-1.867,2.367-5.934,3.933-12.2,4.7
		c-7.167,4.567-12.667,7.399-16.5,8.5c-5.633,1.533-9.5,1.866-11.6,1c-2.633-1.3-4.217-2.601-4.75-3.9 M129.4,323.65
		c1.133,0.166,2.233,0.299,3.3,0.399 M99.1,135.55c0.6,1.767,1.217,3.616,1.85,5.55 M93.35,120.75
		c-0.417-0.834-0.833-1.667-1.25-2.5 M118.35,23.9l-1.5-0.7 M163.45,28.05h2.5 M167.95,119.95c2.1,2.367,4.149,4.9,6.149,7.6
		 M184.9,144.55c1-0.7,1.982-1.384,2.949-2.05c4.301-3.167,8.25-6.65,11.851-10.45 M147.75,12.15l1.75-2.75 M146.4,15.95l1.55-1.4
		 M161.85,23.6l3.2-1.65 M158.05,22.2l2.2-1.45 M155,15.4l2.95-2 M151,17.6l1.5-1.5 M140.65,11.3V8.65 M123.95,18.4l-1.4-1
		 M124.45,15.75l-1.95-2.15 M132.05,12.25L131,9.85 M128.95,16.5l-1.8-2.45 M134.9,14.55l-0.45-2.8 M141.35,14.85l1.15-3.45
		 M116.7,44c-1.4-3.467-3.35-4.867-5.85-4.2 M144.7,55.6c1.533,0.267,2.833,0.683,3.899,1.25c0.467,0.267,0.9,0.55,1.301,0.85
		c0.899,0.733,1.55,1.633,1.949,2.7 M127.25,64.5c0.967-0.033,1.9-0.084,2.8-0.15c8.333-0.767,14.517-3.267,18.55-7.5 M132.45,73.85
		c0.9-0.2,1.783-0.45,2.65-0.75c-0.133-2.233-1.817-5.15-5.05-8.75 M135.45,44.6c-0.767,3.3-2.367,5.767-4.8,7.4
		c0.233,3.133,2.367,4.733,6.4,4.8 M155.8,87.1c-4.333,5.3-9.066,8.95-14.2,10.95 M154.5,76.2c-4.133,4.4-8.883,7.083-14.25,8.05
		c-0.867,0.133-1.717,0.233-2.55,0.3 M135.1,73.1c6.066-2.3,11-7.434,14.8-15.4 M116.7,50.25c-1.767-0.3-2.6-1.533-2.5-3.7
		 M93.55,121.2v0.05c0.067,0.1,0.117,0.217,0.15,0.35c1.8,4.65,3.6,9.3,5.4,13.95 M93.55,121.2c-0.067-0.167-0.133-0.317-0.2-0.45
		 M112.85,113.15c-0.667,5.7-2,13.266-4,22.7 M141.6,98.05c-2.2,0.833-4.467,1.366-6.8,1.6 M136.25,219.15L146.8,240.8
		 M132.7,324.05c9.267,0.866,15.917-0.3,19.95-3.5 M200.65,324.7c-2.734,2.2-7.684,2.833-14.851,1.899 M104.25,187.6
		c23.567,2.633,44.2,1.8,61.9-2.5"/>
</g>
</svg>
